<svg xmlns="http://www.w3.org/2000/svg" viewBox="0 0 3.58 3.58"><defs><style>.cls-1{fill:#17a7d0;}</style></defs><title>Ресурс 1</title><g id="Слой_2" data-name="Слой 2"><g id="Layer_1" data-name="Layer 1"><path class="cls-1" d="M1.79,0A1.78,1.78,0,0,1,3.05.52h0a1.79,1.79,0,0,1,0,2.53H3a1.78,1.78,0,0,1-2.52,0h0A1.79,1.79,0,0,1,.52.52h0A1.78,1.78,0,0,1,1.79,0ZM1.54.29h0l0,.09a1,1,0,0,1-.17.48s-.27.21-.27.25.05,0,.25,0h0a.75.75,0,0,1,.33.09.6.6,0,0,1,.2.18.33.33,0,0,1,.05.27.45.45,0,0,1-.11.19c-.2.22-.19.25-.18.36a1.55,1.55,0,0,1,0,.19v.14a1.72,1.72,0,0,1,0,.26h0c0,.4-.4.12-.52,0a2.05,2.05,0,0,1-.3-.43S.77,2.31.72,2.28a.39.39,0,0,1-.29-.37,1.08,1.08,0,0,1,0-.34s0,0,0-.05a.33.33,0,0,0-.13,0H.29a1.69,1.69,0,0,0,0,.23A1.51,1.51,0,0,0,.72,2.86h0a1.51,1.51,0,0,0,.58.36c.13,0,.26-.08.38-.11a1.58,1.58,0,0,1,.85,0,1.42,1.42,0,0,0,.33-.25h0a1.54,1.54,0,0,0,.2-.25.79.79,0,0,1-.17.11.21.21,0,0,1-.19,0l0,0h0c-.12-.14-.06-.33,0-.53s.14-.42-.12-.5l-.12-.05a.63.63,0,0,1-.24-.22c-.13-.21,0-.33.1-.48L2.34.86A.26.26,0,0,1,2,.69.4.4,0,0,1,2,.61H2C2,.45,1.9.38,1.8.28h0l-.24,0ZM.33,1.38h0a.4.4,0,0,1,.22,0c.13,0,.11.12.08.25a1,1,0,0,0,0,.29c0,.13.11.18.19.22A.35.35,0,0,1,1,2.3a1.76,1.76,0,0,0,.27.38s.21.26.23.11a1.79,1.79,0,0,0,0-.24s0-.09,0-.14,0-.13,0-.18,0-.21.22-.49a.28.28,0,0,0,.07-.12.17.17,0,0,0,0-.14.41.41,0,0,0-.14-.12.56.56,0,0,0-.26-.07h0c-.32,0-.41,0-.41-.17s.22-.27.32-.37A1,1,0,0,0,1.37.36v0A1.52,1.52,0,0,0,.72.71h0a1.51,1.51,0,0,0-.39.66ZM2.27,3.22h0a2,2,0,0,0-.56.05l-.08,0h.16a1.47,1.47,0,0,0,.48-.08Zm1-1.11h0l0,0A1.5,1.5,0,0,0,2.86.72h0A1.52,1.52,0,0,0,2,.29a.53.53,0,0,1,.13.29h0a.15.15,0,0,0,0,0h0c0,.07.1.06.15.06s.16,0,.19.09,0,.17-.12.25-.16.15-.08.28a.44.44,0,0,0,.17.16l.09,0c.42.13.33.43.23.71s-.1.29,0,.37l0,0A.64.64,0,0,0,3,2.47a1.36,1.36,0,0,0,.27-.36ZM2.35.84h0v0s0,0,0,0Z"/></g></g></svg>