<svg id="Layer_1" data-name="Layer 1" xmlns="http://www.w3.org/2000/svg" viewBox="0 0 3.33 3.58"><defs><style>.cls-1{fill:#17a7d0;}</style></defs><title>movie-icon</title><path class="cls-1" d="M256.72,206.11h1.7a.08.08,0,0,0,.08-.08.08.08,0,0,0-.08-.08h-1.7a.08.08,0,0,0-.08.08.08.08,0,0,0,.08.08Zm0,.53h1.7a.08.08,0,0,0,.08-.08.08.08,0,0,0-.08-.08h-1.7a.08.08,0,0,0-.08.08.08.08,0,0,0,.08.08Zm2.28-1.36h-2.28l2.2-.67a.14.14,0,0,0,.09-.17l-.19-.61a.14.14,0,0,0-.17-.09l-2.74.84a.14.14,0,0,0-.09.17l.19.61h0a.13.13,0,0,0,0,.05v1.75a.14.14,0,0,0,.14.14H259a.14.14,0,0,0,.14-.14v-1.75a.14.14,0,0,0-.14-.14Zm-.6-1.18h0l.2-.06.11.35-.4.12.1-.41Zm-.61.19h0l.43-.13-.1.41-.43.13.1-.41Zm-.61.19h0l.43-.13-.1.41-.43.13.1-.41Zm-.61.18h0l.43-.13-.1.41-.43.13.1-.41Zm-.45.14h0l.27-.08-.1.41-.07,0-.11-.35Zm2.75,2.24h-2.59v-1.48h2.59V207Z" transform="translate(-255.81 -203.73)"/></svg>