<svg id="Layer_1" data-name="Layer 1" xmlns="http://www.w3.org/2000/svg" viewBox="0 0 3.58 2.76"><defs><style>.cls-1{fill:#17a7d0;}</style></defs><title>joystick-icon</title><path class="cls-1" d="M334,721.22a1.09,1.09,0,0,1,.45.52,3.2,3.2,0,0,1,.13.35c0,.13.07.26.09.4a3.72,3.72,0,0,1,0,.39c0,.13,0,.26,0,.38a.69.69,0,0,1-.07.28.52.52,0,0,1-.73.24.58.58,0,0,1-.2-.17,1.31,1.31,0,0,1-.12-.19.9.9,0,0,0-.27-.33h0a.78.78,0,0,0-.8,0,.91.91,0,0,0-.27.33,1.3,1.3,0,0,1-.12.19.58.58,0,0,1-.2.17h0a.55.55,0,0,1-.79-.52,3.56,3.56,0,0,1,0-.38c0-.13,0-.26,0-.39s.05-.27.09-.4a3,3,0,0,1,.13-.35,1.09,1.09,0,0,1,.45-.52,1.24,1.24,0,0,1,.8-.12l.26,0,.26,0a1.24,1.24,0,0,1,.8.12Zm-1.27,1.34h0a.08.08,0,0,1-.08-.08.08.08,0,0,1,.08-.08h.41a.08.08,0,0,1,.08.08.08.08,0,0,1-.08.08Zm0-.75h0a.08.08,0,0,1-.08-.08.08.08,0,0,1,.08-.08h.41a.08.08,0,0,1,.08.08.08.08,0,0,1-.08.08Zm-.56-.08h0a.08.08,0,0,1,.08-.08.08.08,0,0,1,.08.08V722h.3a.08.08,0,0,1,.08.08.08.08,0,0,1-.08.08h-.3v.29a.08.08,0,0,1-.08.08.08.08,0,0,1-.08-.08v-.29h-.3a.08.08,0,0,1-.08-.08.08.08,0,0,1,.08-.08h.3v-.29Zm1.48,0h0a.14.14,0,0,1,.14.13.14.14,0,1,1-.14-.13Zm-.1.38h0a.14.14,0,1,1-.14-.14.14.14,0,0,1,.14.14Zm.1.1h0a.14.14,0,0,1,.14.14.14.14,0,0,1-.28,0,.14.14,0,0,1,.14-.14Zm.38-.1h0a.14.14,0,0,1-.14.14.14.14,0,1,1,0-.28.14.14,0,0,1,.14.14Zm-.17-.64h0a1,1,0,0,0-.64-.08h-.57a1,1,0,0,0-.64.08.82.82,0,0,0-.33.39,2.39,2.39,0,0,0-.12.32c0,.12-.06.24-.08.37s0,.25,0,.37a3.4,3.4,0,0,0,0,.36h0a.36.36,0,0,0,0,.16.26.26,0,0,0,.46,0,1,1,0,0,0,.09-.15,1.16,1.16,0,0,1,.36-.43,1.06,1.06,0,0,1,1.11,0h0a1.17,1.17,0,0,1,.36.43,1.08,1.08,0,0,0,.09.15.26.26,0,0,0,.46,0,.37.37,0,0,0,0-.16c0-.11,0-.23,0-.36s0-.24,0-.37a3.09,3.09,0,0,0-.08-.37,2.38,2.38,0,0,0-.11-.32.82.82,0,0,0-.34-.39Z" transform="translate(-331.12 -721.08)"/></svg>